# AST/ASF file generated using VICON BodyLanguage
# -----------------------------------------------
:version 1.10
:name VICON
:units
  mass 1.0
  length 0.45
  angle deg
:documentation
   .ast/.asf automatically generated from VICON data using
   VICON BodyBuilder and BodyLanguage model FoxedUp or BRILLIANT.MOD
:root
   order TX TY TZ RX RY RZ
   axis XYZ
   position 0 0 0  
   orientation 0 0 0 
:bonedata
  begin
     id 1 
     name lhipjoint
     direction 0.623415 -0.642378 0.445763 
     length 2.49859 
     axis 0 0 0  XYZ
  end
  begin
     id 2 
     name lfemur
     direction 0.34202 -0.939693 0  
     length 6.69689  
     axis 0 0 20  XYZ
    dof rx ry rz
    limits (-160.0 20.0)
           (-70.0 70.0)
           (-60.0 70.0)
  end
  begin
     id 3 
     name ltibia
     direction 0.34202 -0.939693 0   
     length 7.37574   
     axis 0 0 20   XYZ
    dof rx
    limits (-10.0 170.0)
  end
  begin
     id 4 
     name lfoot
     direction 0.084323 -0.231675 0.969132   
     length 2.09111   
     axis -90 7.62852e-016 20   XYZ
    dof rx rz
    limits (-45.0 90.0)
           (-70.0 20.0)
  end
  begin
     id 5 
     name ltoes
     direction 1.5357e-011 -4.21957e-011 1   
     length 1.04989   
     axis -90 7.62852e-016 20   XYZ
    dof rx
    limits (-90.0 20.0)
  end
  begin
     id 6 
     name rhipjoint
     direction -0.605402 -0.653903 0.45376   
     length 2.45455  
     axis 0 0 0  XYZ 
  end
  begin
     id 7 
     name rfemur
     direction -0.34202 -0.939693 0   
     length 6.64523   
     axis 0 0 -20   XYZ
    dof rx ry rz
    limits (-160.0 20.0)
           (-70.0 70.0)
           (-70.0 60.0)
  end
  begin
     id 8 
     name rtibia
     direction -0.34202 -0.939693 0   
     length 7.3339   
     axis 0 0 -20   XYZ
    dof rx
    limits (-10.0 170.0)
 end
 begin
     id 9 
     name rfoot
     direction -0.120854 -0.332043 0.93549   
     length 2.23135  
     axis -90 -7.62852e-016 -20   XYZ
    dof rx rz
    limits (-45.0 90.0)
           (-20.0 70.0)
  end
  begin
     id 10 
     name rtoes
     direction -1.53563e-011 -4.21914e-011 1   
     length 1.10614   
     axis -90 -7.62852e-016 -20   XYZ
    dof rx
    limits (-90.0 20.0)
  end
  begin
     id 11 
     name lowerback
     direction 0.0319682 0.998615 -0.0417941   
     length 2.02718   
     axis 0 0 0   XYZ
    dof rx ry rz
    limits (-20.0 45.0)
           (-30.0 30.0)
           (-30.0 30.0)
  end
  begin
     id 12 
     name upperback
     direction 7.63181e-005 0.995808 0.0914691   
     length 1.97539   
     axis 0 0 0   XYZ
    dof rx ry rz
    limits (-20.0 45.0)
           (-30.0 30.0)
           (-30.0 30.0)
  end
  begin
     id 13 
     name thorax
     direction -0.016423 0.993627 0.111514   
     length 2.00349   
     axis 0 0 0   XYZ
    dof rx ry rz
    limits (-20.0 45.0)
           (-30.0 30.0)
           (-30.0 30.0)
  end
  begin
     id 14 
     name lowerneck
     direction -0.174763 0.981668 -0.0760716   
     length 1.71436   
     axis 0 0 0   XYZ
    dof rx ry rz
    limits (-20.0 45.0)
           (-30.0 30.0)
           (-30.0 30.0)
  end
  begin
     id 15 
     name upperneck
     direction 0.345458 0.934587 -0.0848868   
     length 1.72805   
     axis 0 0 0   XYZ
    dof rx ry rz
    limits (-20.0 45.0)
           (-30.0 30.0)
           (-30.0 30.0)
  end
  begin
     id 16
     name head
     direction 0.13001 0.989848 -0.0574291  
     length 1.767  
     axis 0 0 0   XYZ
    dof rx ry rz
    limits (-20.0 45.0)
           (-30.0 30.0)
           (-30.0 30.0)
  end
  begin
     id 17 
     name lclavicle
     direction 0.952951 0.290122 0.0878234  
     length 3.54654  
     axis 0 0 0   XYZ
    dof ry rz
    limits (-20.0 10.0)
           (0.0 20.0)
  end
  begin
     id 18 
     name lhumerus
     direction 1 -4.48957e-011 -4.56525e-028   
     length 5.19807   
     axis 180 -30 -90   XYZ
    dof rx ry rz
    limits (-60.0 90.0)
           (-90.0 90.0)
           (-90.0 90.0)
  end
  begin
     id 19
     name lradius
     direction 1 -4.48979e-011 -2.0317e-027   
     length 3.0937   
     axis 180 -30 -90   XYZ
    dof rx
    limits (-10.0 170.0)
  end
  begin
     id 20
     name lwrist
     direction 1 -4.48953e-011 -3.05809e-027   
     length 1.54685   
     axis 8.48514e-016 90 90   XYZ
    dof ry
    limits (-180.0 0.0)
 end
  begin
     id 21 
     name lhand
     direction 1 -4.48952e-011 -6.11639e-027   
     length 0.672632   
     axis 3.9013e-015 90 90   XYZ
    dof rx rz
    limits (-90.0 90.0)
           (-45.0 45.0)
  end
  begin
     id 22 
     name lfingers
     direction 1 -4.48925e-011 -1.22426e-026   
     length 0.542293   
     axis 7.80276e-015 90 90   XYZ
    dof rx
    limits (0.0 90.0)
  end
  begin
     id 23
     name lthumb
     direction 0.707107 -6.3486e-011 0.707107   
     length 0.778628   
     axis -90 45 5.37419e-014   XYZ
    dof rx rz
    limits (-45.0 45.0)
           (-45.0 45.0)
  end
  begin
     id 24 
     name rclavicle
     direction -0.960732 0.273675 -0.0457849   
     length 3.52079  
     axis 0 0 0   XYZ 
    dof ry rz
    limits (-10.0 20.0)
           (-20.0 0.0)
  end
  begin
     id 25 
     name rhumerus
     direction -1 -4.48976e-011 -1.63613e-027  
     length 5.45222   
     axis 180 30 90   XYZ
    dof rx ry rz
    limits (-90.0 60.0)
           (-90.0 90.0)
           (-90.0 90.0)
  end
  begin
     id 26 
     name rradius
     direction -1 -4.48957e-011 -7.00033e-028   
     length 3.01284   
     axis 180 30 90   XYZ
    dof rx
    limits (-10.0 170.0)
  end
  begin
     id 27 
     name rwrist
     direction -1 -4.48983e-011 -3.05543e-027   
     length 1.50642   
     axis 8.48514e-016 -90 -90   XYZ
    dof ry
    limits (-180.0 0.0)
  end
  begin
     id 28
     name rhand
     direction -1 -4.48984e-011 -6.11072e-027   
     length 0.622296   
     axis 3.9013e-015 -90 -90   XYZ
    dof rx rz
    limits (-90.0 90.0)
           (-45.0 45.0)
  end
  begin
     id 29
     name rfingers
     direction -1 -4.48865e-011 -1.22637e-026   
     length 0.501711   
     axis 7.80276e-015 -90 -90   XYZ
    dof rx
    limits (0.0 90.0)
  end
  begin
     id 30
     name rthumb
     direction -0.707107 -6.34932e-011 0.707107   
     length 0.72036   
     axis -90 -45 -5.37419e-014   XYZ
    dof rx rz
    limits (-45.0 45.0)
           (-45.0 45.0)
  end
:hierarchy
  begin
    root lhipjoint rhipjoint lowerback
    lhipjoint lfemur
    lfemur ltibia
    ltibia lfoot
    lfoot ltoes
    rhipjoint rfemur
    rfemur rtibia
    rtibia rfoot
    rfoot rtoes
    lowerback upperback
    upperback thorax
    thorax lowerneck lclavicle rclavicle
    lowerneck upperneck
    upperneck head
    lclavicle lhumerus
    lhumerus lradius
    lradius lwrist
    lwrist lhand lthumb
    lhand lfingers
    rclavicle rhumerus
    rhumerus rradius
    rradius rwrist
    rwrist rhand rthumb
    rhand rfingers
  end

#!OML:ASF H:\Not Pregnant\Project 1\Capture day 1\Session 1\non-pregnant.ASF
:FULLY-SPECIFIED
:DEGREES
470
root -5.19504 15.7573 36.7668 207.07 -74.2788 -199.858
lowerback -6.597 2.93685 -6.58863
upperback -2.62337 4.17528 -4.76045
thorax 0.853073 2.00795 -0.941328
lowerneck 18.3182 -6.44248 -31.6941
upperneck -24.0875 -11.8226 39.3
head -4.89674 -7.96962 23.5297
rclavicle -4.92924e-014 7.95139e-015
rhumerus -31.2507 15.8011 -100.356
rradius 27.9528
rwrist 19.462
rhand -13.9615 2.5551
rfingers 7.12502
rthumb 12.1663 -27.0711
lclavicle -4.92924e-014 7.95139e-015
lhumerus -38.5889 -16.0108 91.7378
lradius 32.7212
lwrist 39.7391
lhand -14.5605 -12.3379
lfingers 7.12502
lthumb 11.5886 17.3217
rfemur -23.5331 15.0111 3.29867
rtibia 35.8068
rfoot -18.5093 -8.62907
rtoes -22.0396
lfemur -18.7595 19.516 -33.9132
ltibia 23.7592
lfoot -16.1544 -21.4801
ltoes 4.13458
471
root -5.19331 15.7578 36.7703 206.988 -74.2333 -199.724
lowerback -6.63989 2.97188 -6.46913
upperback -2.65891 4.21505 -4.80791
thorax 0.851479 2.02675 -1.05204
lowerneck 18.5406 -6.51956 -31.5562
upperneck -24.2803 -11.9455 39.4133
head -4.94276 -8.07097 23.6122
rclavicle -7.688e-014 3.97569e-015
rhumerus -31.2441 15.5863 -100.315
rradius 27.9293
rwrist 19.5003
rhand -13.8827 2.58492
rfingers 7.12502
rthumb 12.2422 -27.0368
lclavicle -7.688e-014 3.97569e-015
lhumerus -38.6419 -16.1773 91.7205
lradius 32.7498
lwrist 39.7612
lhand -14.6406 -12.3676
lfingers 7.12502
lthumb 11.5114 17.2963
rfemur -23.5938 15.015 3.28155
rtibia 35.7539
rfoot -18.499 -8.59055
rtoes -22.0268
lfemur -18.8363 19.4098 -33.9209
ltibia 23.7876
lfoot -16.2211 -21.2829
ltoes 3.82078
472
root -5.19136 15.7582 36.7745 206.913 -74.193 -199.593
lowerback -6.68322 2.99685 -6.34953
upperback -2.69479 4.24156 -4.84639
thorax 0.849657 2.03909 -1.15436
lowerneck 18.7445 -6.59013 -31.4323
upperneck -24.4601 -12.0587 39.5273
head -4.98445 -8.1655 23.6973
rclavicle -3.46475e-014 1.59028e-014
rhumerus -31.2437 15.3821 -100.268
rradius 27.9128
rwrist 19.5437
rhand -13.8195 2.60953
rfingers 7.12502
rthumb 12.3031 -27.0085
lclavicle -3.46475e-014 1.59028e-014
lhumerus -38.6898 -16.3165 91.7073
lradius 32.7698
lwrist 39.7617
lhand -14.717 -12.3967
lfingers 7.12502
lthumb 11.4377 17.2713
rfemur -23.6618 14.9986 3.26298
rtibia 35.7048
rfoot -18.4935 -8.53246
rtoes -22.0033
lfemur -18.9152 19.2878 -33.9292
ltibia 23.8113
lfoot -16.2939 -21.0705
ltoes 3.44478
473
root -5.18921 15.7584 36.779 206.858 -74.1565 -199.48
lowerback -6.72767 3.00883 -6.23976
upperback -2.72796 4.25189 -4.87136
thorax 0.849999 2.04355 -1.23825
lowerneck 18.924 -6.65274 -31.3333
upperneck -24.6266 -12.1618 39.641
head -5.01971 -8.25159 23.7862
rclavicle 4.25989e-014 2.8625e-014
rhumerus -31.2402 15.1786 -100.205
rradius 27.8901
rwrist 19.6184
rhand -13.7719 2.6401
rfingers 7.12502
rthumb 12.3491 -26.9752
lclavicle 4.25989e-014 2.8625e-014
lhumerus -38.7256 -16.4109 91.6996
lradius 32.7771
lwrist 39.7359
lhand -14.7904 -12.4286
lfingers 7.12502
lthumb 11.3669 17.2433
rfemur -23.7336 14.9734 3.23796
rtibia 35.6584
rfoot -18.4926 -8.46223
rtoes -21.964
lfemur -18.9905 19.1584 -33.9427
ltibia 23.822
lfoot -16.3671 -20.8521
ltoes 3.03597
474
root -5.18808 15.7593 36.7754 206.739 -74.1283 -199.371
lowerback -6.75146 2.9949 -6.25561
upperback -2.72906 4.23672 -4.84586
thorax 0.859288 2.03619 -1.20293
lowerneck 19.0689 -6.7102 -31.2703
upperneck -24.7728 -12.2604 39.7573
head -5.04 -8.3314 23.8782
rclavicle -2.36833e-015 2.14687e-014
rhumerus -31.2484 15.0389 -100.144
rradius 27.8797
rwrist 19.6793
rhand -13.7444 2.66371
rfingers 7.12502
rthumb 12.3756 -26.95
lclavicle -2.36833e-015 2.14687e-014
lhumerus -38.7465 -16.4382 91.6952
lradius 32.7699
lwrist 39.6744
lhand -14.8608 -12.4694
lfingers 7.12502
lthumb 11.299 17.2063
rfemur -23.703 15.0521 3.26951
rtibia 35.6141
rfoot -18.4921 -8.48462
rtoes -21.902
lfemur -18.9668 19.1941 -33.9031
ltibia 23.81
lfoot -16.4244 -20.8156
ltoes 2.80178
475
root -5.18756 15.7607 36.7657 206.568 -74.1067 -199.262
lowerback -6.75816 2.9553 -6.36653
upperback -2.7048 4.19433 -4.77621
thorax 0.875573 2.01605 -1.07183
lowerneck 19.1817 -6.75749 -31.2527
upperneck -24.8963 -12.3519 39.8836
head -5.04482 -8.40381 23.983
rclavicle 8.41729e-016 -5.56597e-015
rhumerus -31.2761 14.9985 -100.095
rradius 27.8918
rwrist 19.7032
rhand -13.7366 2.66192
rfingers 7.12502
rthumb 12.3831 -26.9513
lclavicle 8.41729e-016 -5.56597e-015
lhumerus -38.7546 -16.3917 91.6918
lradius 32.7493
lwrist 39.5698
lhand -14.9191 -12.5183
lfingers 7.12502
lthumb 11.2428 17.1604
rfemur -23.5964 15.212 3.34396
rtibia 35.5727
rfoot -18.4911 -8.57843
rtoes -21.8329
lfemur -18.8648 19.3458 -33.8215
ltibia 23.7751
lfoot -16.4698 -20.908
ltoes 2.68964
476
root -5.18751 15.7625 36.7511 206.387 -74.0913 -199.184
lowerback -6.75057 2.8999 -6.56054
upperback -2.66143 4.13653 -4.67809
thorax 0.896137 1.98866 -0.867017
lowerneck 19.2813 -6.80031 -31.2596
upperneck -25.0081 -12.4425 40.0194
head -5.04025 -8.47468 24.0977
rclavicle 1.98591e-014 -5.56597e-015
rhumerus -31.3241 15.0457 -100.061
rradius 27.9287
rwrist 19.6676
rhand -13.751 2.64127
rfingers 7.12502
rthumb 12.3692 -26.9728
lclavicle 1.98591e-014 -5.56597e-015
lhumerus -38.7565 -16.3132 91.6965
lradius 32.7214
lwrist 39.446
lhand -14.9692 -12.5714
lfingers 7.12502
lthumb 11.1944 17.11
rfemur -23.4306 15.4244 3.44615
rtibia 35.5369
rfoot -18.4916 -8.72196
rtoes -21.7522
lfemur -18.7013 19.5908 -33.7131
ltibia 23.7226
lfoot -16.506 -21.111
ltoes 2.68605
477
root -5.1874 15.7642 36.7352 206.217 -74.083 -199.13
lowerback -6.73617 2.83434 -6.78598
upperback -2.61189 4.06717 -4.56608
thorax 0.916993 1.95568 -0.631641
lowerneck 19.3742 -6.83829 -31.2781
upperneck -25.1115 -12.5294 40.1617
head -5.03154 -8.5434 24.22
rclavicle -1.70358e-014 3.02153e-014
rhumerus -31.3862 15.1452 -100.034
rradius 27.9808
rwrist 19.5993
rhand -13.7916 2.59634
rfingers 7.12502
rthumb 12.33 -27.0201
lclavicle -1.70358e-014 3.02153e-014
lhumerus -38.7572 -16.217 91.7126
lradius 32.6921
lwrist 39.3181
lhand -15.0179 -12.6198
lfingers 7.12502
lthumb 11.1475 17.0641
rfemur -23.2511 15.638 3.556
rtibia 35.5108
rfoot -18.4921 -8.87517
rtoes -21.686
lfemur -18.5228 19.8526 -33.5974
ltibia 23.6711
lfoot -16.5513 -21.3395
ltoes 2.67188
478
root -5.18645 15.765 36.7232 206.101 -74.076 -199.101
lowerback -6.72636 2.76855 -6.96914
upperback -2.57407 3.99434 -4.46386
thorax 0.932961 1.92082 -0.429902
lowerneck 19.4657 -6.87155 -31.2992
upperneck -25.2096 -12.6112 40.3087
head -5.02254 -8.60995 24.3484
rclavicle 2.91188e-015 2.06736e-014
rhumerus -31.4462 15.2208 -99.9921
rradius 28.0268
rwrist 19.5559
rhand -13.8551 2.55428
rfingers 7.12502
rthumb 12.2688 -27.0658
lclavicle 2.91188e-015 2.06736e-014
lhumerus -38.7587 -16.1207 91.7424
lradius 32.6643
lwrist 39.2021
lhand -15.0668 -12.6598
lfingers 7.12502
lthumb 11.1004 17.0266
rfemur -23.1251 15.7791 3.63467
rtibia 35.4984
rfoot -18.4965 -8.96916
rtoes -21.6422
lfemur -18.3912 20.0287 -33.5113
ltibia 23.6358
lfoot -16.6247 -21.4753
ltoes 2.51102
